<?xml version="1.0" encoding="UTF-8"?>
<!DOCTYPE svg PUBLIC "-//W3C//DTD SVG 1.1//EN" "http://www.w3.org/Graphics/SVG/1.1/DTD/svg11.dtd">
<!-- Creator: CorelDRAW 2021 (64-Bit) -->
<svg xmlns="http://www.w3.org/2000/svg" xml:space="preserve" width="3983px" height="1288px" version="1.1" style="shape-rendering:geometricPrecision; text-rendering:geometricPrecision; image-rendering:optimizeQuality; fill-rule:evenodd; clip-rule:evenodd"
viewBox="0 0 3983 1287.87"
 xmlns:xlink="http://www.w3.org/1999/xlink"
 xmlns:xodm="http://www.corel.com/coreldraw/odm/2003">
 <defs>
  <style type="text/css">
   <![CDATA[
    .str1 {stroke:#FEFEFE;stroke-width:5.79;stroke-linecap:round;stroke-linejoin:round;stroke-miterlimit:2.61313}
    .str0 {stroke:#FEFEFE;stroke-width:5.79;stroke-linecap:round;stroke-linejoin:round;stroke-miterlimit:2.61313}
    .fil3 {fill:none;fill-rule:nonzero}
    .fil1 {fill:#09192A}
    .fil4 {fill:#FAF7F7;fill-rule:nonzero}
    .fil0 {fill:url(#id0)}
    .fil2 {fill:url(#id1)}
   ]]>
  </style>
  <linearGradient id="id0" gradientUnits="userSpaceOnUse" x1="1670.72" y1="496.73" x2="2143.56" y2="1313.53">
   <stop offset="0" style="stop-opacity:1; stop-color:#09192A"/>
   <stop offset="1" style="stop-opacity:1; stop-color:#FEFEFE"/>
  </linearGradient>
  <linearGradient id="id1" gradientUnits="userSpaceOnUse" x1="1497.88" y1="1177.98" x2="1569.71" y2="1378.97">
   <stop offset="0" style="stop-opacity:1; stop-color:#FC4C02"/>
   <stop offset="1" style="stop-opacity:1; stop-color:#09192A"/>
  </linearGradient>
 </defs>
 <g id="Layer_x0020_1">
  <metadata id="CorelCorpID_0Corel-Layer"/>
  <path class="fil0" d="M1803.69 365.77c0,36.03 -14.19,68.89 -29.06,89.48 -17.12,23.73 -43.16,43.86 -64.92,52.83 -78.65,32.43 -156.58,-1.63 -188.77,-47.34 -0.2,-0.29 -0.77,-1.11 -0.98,-1.4 -14.44,-20.01 -22.57,-36.51 -28.76,-60.76 -4.03,-15.79 -4.68,-38.96 -2.53,-55.51 4.05,-31.23 19.95,-66.1 42.82,-88.88 0.18,-0.18 0.43,-0.44 0.61,-0.62l6.15 -6.21c8.22,-8.54 8.93,-7.38 16.13,-12.69 36.46,-26.84 85.63,-36.6 131.43,-24.35 1.47,0.4 2.71,0.74 3.8,1.05 17.5,4.88 34.34,13.73 47.2,22.71 39.6,27.65 66.88,73.4 66.88,131.69zm-199.66 886.01l82.97 0 6.92 -1.29c55.33,-2.54 110.68,-7.32 164.99,-20.3 3.78,-0.9 7.59,-1.71 12.03,-2.72 40.95,-9.23 103.24,-30.32 138.41,-56.86 2.61,-1.97 0.21,-0.15 2.07,-1.68l16.57 -13.19c0.17,-0.15 0.43,-0.41 0.6,-0.57 0.17,-0.16 0.44,-0.41 0.61,-0.57 0.18,-0.17 0.46,-0.41 0.63,-0.58 16.83,-15.84 28.44,-31.19 36.41,-55.47 2.88,-8.81 3.94,-14.64 4.37,-25.62 0.38,-10.01 0.15,-18.93 -1.6,-27.09 -4.16,-19.31 -11.69,-34.99 -23.74,-50.22 -15.5,-19.58 -34.09,-34.15 -56.77,-46.79 -26.04,-14.51 -52.52,-25.55 -82.46,-34.2 -13.54,-3.91 -31.92,-10.33 -46.91,-12.04l-48.33 78.34c-4.36,6.93 -13.33,18.97 -16.29,26.17l66.37 15.73c7.44,2.16 13.49,4.12 20.64,6.64 3.28,1.16 7.15,2.54 10.04,3.61 2.12,0.78 3.8,1.39 5.71,2.17 0.93,0.38 2.26,0.95 2.63,1.1l15.87 6.57c0.26,0.13 0.58,0.29 0.84,0.42l37.08 23.29c-3.94,2.63 -8.08,7.58 -13.7,10.91 -78.41,46.42 -207.34,58.54 -295.72,58.33 -84.68,-0.19 -167.2,-8.29 -246.23,-36.69 -12.58,-4.51 -20.23,-8.12 -32.55,-13.99 -8.86,-4.23 -23.81,-13.17 -28.15,-19.81l6.63 -4.66c0.19,-0.16 0.47,-0.39 0.66,-0.55l8.63 -6.19c0.24,-0.13 0.56,-0.3 0.81,-0.43 0.24,-0.14 0.56,-0.3 0.81,-0.43l67.79 -28c0.31,-0.09 0.64,-0.18 0.95,-0.28 35.72,-11.01 72.65,-18.26 111.04,-23.04 4.02,-0.5 10.81,-1.48 16.54,-2.02 10.44,-0.98 15.81,-3.63 19.96,2.49 1.02,1.5 1.04,1.88 2.13,3.65l71.6 116.26c0.09,-0.2 0.41,0.49 0.63,0.73 5.37,-6.13 15.65,-24.56 21.18,-33.7 0.14,-0.24 0.33,-0.55 0.46,-0.79 0.15,-0.24 0.33,-0.56 0.47,-0.8l10.76 -17.77c0.9,-1.5 1.63,-2.74 2.79,-4.67l39.68 -66.02c0.84,-1.29 1.04,-1.68 1.43,-2.33l18.62 -31.16c0.14,-0.25 0.3,-0.58 0.44,-0.83 0.13,-0.24 0.3,-0.56 0.43,-0.8l7.12 -11.3c0.81,-1.35 0.91,-1.49 1.41,-2.37l93.88 -155.91c0.14,-0.21 0.34,-0.53 0.48,-0.75 0.71,-1.09 0.9,-1.41 1.42,-2.27 0.58,-0.94 1.78,-2.98 2.33,-3.9l84.88 -141.43c3.12,-5.76 6.73,-11.45 10.31,-16.88 0.23,-0.35 1.14,-1.7 1.47,-2.21l18.73 -31.12c0.19,-0.32 0.72,-1.22 0.9,-1.54 2.16,-3.69 3.67,-5.73 5.61,-9.27 28.39,-51.58 42.52,-107.47 46.16,-165.22 0.84,-13.37 -0.21,-27.1 -0.68,-40.41 -0.61,-16.92 -2.92,-33.9 -6.84,-50.04l-16.91 -57.43c-0.11,-0.29 -0.23,-0.61 -0.35,-0.9 -0.11,-0.29 -0.24,-0.62 -0.35,-0.91l-6.2 -14.99c-0.11,-0.24 -0.27,-0.56 -0.38,-0.8l-6.93 -14.51c-18.15,-38.19 -44.67,-71.59 -74.05,-101.1 -14.94,-15.01 -39.16,-34.9 -63.31,-49.41 -44.44,-26.69 -93.69,-44.82 -146.06,-52.16l-23.74 -2.87c-0.21,-0.43 -0.73,-0.2 -1.07,-0.36l-41.74 0c-3.09,1.19 -33.85,3.52 -41.04,4.7 -13.34,2.19 -24.06,4.35 -36.65,7.95 -12.22,3.51 -23.19,6.59 -34.32,10.6 -92.33,33.29 -168.54,107.3 -208.85,196.4 -42.28,93.46 -43.64,205.28 -1.91,299.14 11.77,26.47 17.58,34.92 32.11,58.33l172.5 276.23c-66.15,8.6 -146.01,25.68 -200.96,58.79 -29.68,17.89 -49.09,32.15 -69.49,59.63 -20.77,27.98 -24.44,69.85 -10.66,103.06 16.39,39.52 60.99,70.95 98.05,87.09 0.27,0.12 0.6,0.26 0.87,0.37l59.45 22.13c0.75,0.25 2.07,0.72 2.73,0.93l54.91 13.6c55.3,10.88 95.52,14.95 152.5,17.55l6.92 1.3z"/>
  <g id="_2695767713520">
   <path class="fil1" d="M1509.71 887.33l278.56 0 -37.96 63.04c-0.5,0.88 -0.6,1.02 -1.41,2.37l-7.12 11.3c-0.13,0.24 -0.3,0.56 -0.43,0.8 -0.14,0.25 -0.3,0.58 -0.44,0.83l-18.62 31.16c-0.39,0.65 -0.59,1.04 -1.43,2.33l-39.68 66.02c-1.16,1.93 -1.89,3.17 -2.79,4.67l-10.76 17.77c-0.14,0.24 -0.32,0.56 -0.47,0.8 -0.13,0.24 -0.32,0.55 -0.46,0.79 -5.53,9.14 -15.81,27.57 -21.18,33.7 -0.22,-0.24 -0.54,-0.93 -0.63,-0.73l-71.6 -116.26c-1.09,-1.77 -1.11,-2.15 -2.13,-3.65 -4.16,-6.12 -9.52,-3.47 -19.96,-2.49 -5.73,0.54 -12.52,1.52 -16.54,2.02 -38.39,4.78 -75.32,12.03 -111.04,23.04 -0.31,0.1 -0.64,0.19 -0.95,0.28l-67.79 28c-0.25,0.13 -0.57,0.29 -0.81,0.43 -0.25,0.13 -0.57,0.3 -0.81,0.43l-8.63 6.19c-0.19,0.16 -0.47,0.39 -0.66,0.55l-6.63 4.66c4.34,6.64 19.29,15.58 28.15,19.81 12.32,5.87 19.97,9.48 32.55,13.99 79.03,28.4 161.55,36.5 246.23,36.69 88.38,0.21 217.31,-11.91 295.72,-58.33 5.62,-3.33 9.76,-8.28 13.7,-10.91l-37.08 -23.29c-0.26,-0.13 -0.58,-0.29 -0.84,-0.42l-15.87 -6.57c-0.37,-0.15 -1.7,-0.72 -2.63,-1.1 -1.91,-0.78 -3.59,-1.39 -5.71,-2.17 -2.89,-1.07 -6.76,-2.45 -10.04,-3.61 -7.15,-2.52 -13.2,-4.49 -20.64,-6.64l-66.37 -15.73c2.96,-7.2 11.93,-19.24 16.29,-26.17l48.33 -78.34c14.99,1.71 33.37,8.13 46.91,12.04 29.94,8.65 56.42,19.69 82.46,34.2 22.68,12.64 41.27,27.2 56.77,46.79 12.05,15.23 19.58,30.91 23.74,50.22 1.75,8.16 1.98,17.08 1.6,27.09 -0.43,10.98 -1.49,16.81 -4.37,25.62 -7.97,24.28 -19.58,39.63 -36.41,55.47 -0.17,0.17 -0.45,0.41 -0.63,0.58 -0.17,0.16 -0.44,0.41 -0.61,0.57 -0.17,0.16 -0.43,0.42 -0.6,0.57l-16.57 13.19c-1.86,1.53 0.54,-0.29 -2.07,1.68 -35.17,26.54 -97.46,47.63 -138.41,56.86 -4.44,1.01 -8.25,1.82 -12.03,2.72 -54.3,12.98 -109.66,17.76 -164.99,20.3l-6.92 1.29 -82.97 0 -6.92 -1.3c-56.98,-2.6 -97.2,-6.67 -152.5,-17.55l-54.91 -13.6c-0.66,-0.21 -1.98,-0.68 -2.73,-0.93l-59.45 -22.13c-0.27,-0.11 -0.6,-0.25 -0.87,-0.37 -37.06,-16.14 -81.66,-47.57 -98.05,-87.09 -13.78,-33.21 -10.11,-75.08 10.66,-103.06 20.4,-27.48 39.81,-41.74 69.49,-59.62 54.95,-33.12 134.81,-50.2 200.96,-58.8z"/>
  </g>
  <g id="_2695767715776">
   <path class="fil2" d="M1509.52 887.24l278.56 0 -37.96 63.04c-0.5,0.87 -0.6,1.01 -1.41,2.37l-7.12 11.3c-0.14,0.24 -0.3,0.56 -0.43,0.8 -0.14,0.25 -0.3,0.57 -0.44,0.83l-18.62 31.16c-0.39,0.65 -0.59,1.04 -1.43,2.32l-0.44 0.74c-13.78,-0.26 -32.54,-0.9 -37.9,0.77 -3.39,1.05 -84.94,-0.57 -112.44,0.25 -4.01,-4.33 -9.32,-2.03 -18.88,-1.13 -5.73,0.54 -12.52,1.52 -16.54,2.02 -38.39,4.77 -75.32,12.03 -111.04,23.04 -0.31,0.1 -0.64,0.19 -0.95,0.28l-67.79 27.99c-0.25,0.13 -0.57,0.3 -0.82,0.43 -0.24,0.14 -0.56,0.3 -0.8,0.44l-8.63 6.19c-0.19,0.15 -0.47,0.39 -0.66,0.55l-6.63 4.66c4.34,6.64 19.29,15.58 28.15,19.8 12.32,5.88 19.97,9.48 32.55,14 79.03,28.39 161.55,36.49 246.23,36.69 88.38,0.21 217.31,-11.91 295.72,-58.33 5.62,-3.33 9.76,-8.28 13.7,-10.92l-37.08 -23.28c-0.27,-0.13 -0.58,-0.29 -0.84,-0.42l-15.88 -6.57c-0.36,-0.15 -1.69,-0.72 -2.62,-1.1 -1.91,-0.78 -3.59,-1.39 -5.71,-2.17 -2.89,-1.07 -6.76,-2.46 -10.04,-3.61 -7.15,-2.53 -13.2,-4.49 -20.64,-6.64l-66.37 -15.73c2.96,-7.2 11.92,-19.24 16.29,-26.17l48.33 -78.34c14.99,1.71 33.37,8.13 46.91,12.04 29.93,8.64 56.42,19.69 82.46,34.2 22.68,12.64 41.26,27.2 56.77,46.79 12.05,15.22 19.58,30.91 23.74,50.22 1.75,8.15 1.98,17.08 1.59,27.08 -0.42,10.99 -1.48,16.82 -4.37,25.63 -7.96,24.28 -19.57,39.63 -36.4,55.47 -0.18,0.16 -0.45,0.41 -0.63,0.57 -0.17,0.16 -0.44,0.42 -0.61,0.58 -0.17,0.16 -0.43,0.41 -0.61,0.57l-16.56 13.18c-1.87,1.53 0.54,-0.29 -2.07,1.68 -35.17,26.55 -97.46,47.63 -138.42,56.87 -4.44,1 -8.24,1.82 -12.02,2.72 -54.31,12.98 -109.66,17.76 -164.99,20.29l-6.92 1.3 -82.98 0 -6.91 -1.3c-56.98,-2.6 -97.2,-6.67 -152.5,-17.55l-54.92 -13.6c-0.66,-0.21 -1.97,-0.68 -2.72,-0.93l-59.45 -22.13c-0.28,-0.12 -0.61,-0.26 -0.87,-0.37 -37.06,-16.14 -81.66,-47.57 -98.05,-87.09 -13.78,-33.21 -10.12,-75.08 10.65,-103.06 20.41,-27.49 39.81,-41.74 69.5,-59.63 54.95,-33.11 134.81,-50.19 200.96,-58.79z"/>
  </g>
  <g id="_2695767716016">
   <path class="fil1" d="M1575.25 886.11l212.63 0 -37.59 63.04c-0.5,0.88 -0.59,1.02 -1.39,2.37l-7.06 11.3c-0.13,0.24 -0.3,0.56 -0.43,0.8 -0.13,0.25 -0.29,0.58 -0.42,0.83l-18.44 31.16c-0.39,0.65 -0.59,1.04 -1.42,2.33l-39.29 66.02c-1.15,1.93 -1.88,3.17 -2.77,4.67l-10.65 17.77c-0.14,0.25 -0.32,0.56 -0.46,0.8 -0.14,0.24 -0.32,0.55 -0.46,0.79 -5.47,9.14 -15.65,27.57 -20.98,33.7 -0.22,-0.24 -0.53,-0.93 -0.62,-0.73l-70.65 -234.85z"/>
   <path class="fil1" d="M1713.37 885.05l-205.72 0 36.51 63.05c0.48,0.87 0.57,1.01 1.35,2.37l6.85 11.3c0.13,0.24 0.29,0.56 0.42,0.8 0.13,0.25 0.28,0.57 0.41,0.83l17.92 31.15c0.37,0.66 0.57,1.05 1.37,2.33l38.16 66.03c1.12,1.92 1.83,3.16 2.69,4.67l10.35 17.76c0.14,0.25 0.31,0.56 0.45,0.81 0.13,0.24 0.31,0.55 0.45,0.78 5.31,9.14 15.2,27.57 20.37,33.7 0.21,-0.23 0.51,-0.92 0.6,-0.72l67.82 -234.86z"/>
  </g>
  <g>
   <path class="fil3 str0" d="M169.03 865.39l0 -58.05 60.5 0c17.28,0 30.74,-4.07 40.2,-12.15 9.45,-8.15 14.26,-19.56 14.26,-34.16 0,-14.67 -4.97,-25.92 -15,-33.83 -9.95,-7.91 -24.21,-11.82 -42.8,-11.82l-56.18 0 -5.71 -25.28 93.6 0c29.52,0 52.18,7.09 68.25,21.36 15.98,14.27 23.97,34.49 23.97,60.74 0,29.68 -9.3,52.59 -27.81,68.82 -18.59,16.22 -44.92,24.37 -78.92,24.37l-74.36 0zm-59.68 0l0 -339.17 63.03 0 0 339.17 -63.03 0zm43.46 -166.73l0 -23.4 94.09 0 0 23.4 -94.09 0zm16.22 -16.22l0 -25.36 46.15 0c14.76,0 26.01,-3.18 33.51,-9.62 7.58,-6.44 11.41,-15.98 11.41,-28.54 0,-11.49 -4.07,-20.14 -12.06,-25.92 -8.07,-5.87 -20.14,-8.73 -36.2,-8.73l-41.83 0 -5.71 -58.05 49.9 0c35.71,0 63.27,7.26 82.76,21.85 19.48,14.6 29.27,35.3 29.27,62.21 0,23.24 -7.58,41.09 -22.67,53.49 -15.16,12.47 -36.53,18.67 -64.25,18.67l-70.28 0z"/>
  </g>
  <g>
   <path id="_1" class="fil3 str0" d="M534.33 870.2c-36.44,0 -64.74,-11.49 -84.79,-34.4 -20.06,-22.99 -30.09,-55.28 -30.09,-97.02 0,-41.83 10.03,-74.2 30.09,-97.11 20.05,-22.83 48.35,-34.24 84.79,-34.24 36.45,0 64.74,11.41 84.79,34.24 20.06,22.91 30.09,55.28 30.09,97.11 0,41.74 -10.03,74.03 -30.09,97.02 -20.05,22.91 -48.34,34.4 -84.79,34.4zm0 -61.39c15.57,0 27.64,-6.11 36.04,-18.26 8.48,-12.23 12.64,-29.43 12.64,-51.77 0,-22.43 -4.16,-39.71 -12.64,-51.78 -8.4,-12.15 -20.47,-18.18 -36.04,-18.18 -15.49,0 -27.48,6.03 -35.95,18.18 -8.57,12.07 -12.8,29.35 -12.8,51.78 0,22.34 4.23,39.54 12.8,51.77 8.47,12.15 20.46,18.26 35.95,18.26z"/>
  </g>
  <g>
   <path id="_2" class="fil3 str0" d="M887.89 870.2c-31.88,0 -54.87,-8.8 -68.98,-26.33 -14.02,-17.53 -21.11,-45.5 -21.11,-84.06l0 -252.75 64.49 0 0 250.39c0,10.51 1.14,19.07 3.34,25.76 2.28,6.69 6.52,11.66 12.88,14.84 6.44,3.18 15.9,4.73 28.46,4.73 14.02,0 31.71,-3.02 52.99,-9.05l7.42 66.45c-13.53,3.5 -26.58,6.03 -39.13,7.58 -12.56,1.63 -26.09,2.44 -40.36,2.44zm-161.76 -303.62l0 -59.52 75.99 0 0 59.52 -75.99 0z"/>
  </g>
  <g>
   <path id="_3" class="fil3 str0" d="M1219.68 870.2c-43.62,0 -75.18,-8.8 -94.58,-26.33 -19.4,-17.53 -29.19,-45.5 -29.19,-84.06l0 -32.94 64.49 0 0 26.74c0,19.41 4.98,33.51 14.84,42.16 9.87,8.64 26.26,13.04 49.25,13.04 7.25,0 15.08,-0.49 23.4,-1.3 8.23,-0.9 17.77,-2.04 28.62,-3.51l5.78 60.42c-10.51,1.95 -20.79,3.34 -30.81,4.32 -10.03,0.98 -20.63,1.46 -31.8,1.46zm-123.77 -128.33l0 -206.11 64.49 0 0 206.11 -64.49 0zm-60.66 -70.2l0 -59.43 237.42 0 0 59.43 -237.42 0z"/>
  </g>
  <path id="_4" class="fil4" d="M169.03 865.39l0 -58.05 60.5 0c17.28,0 30.74,-4.07 40.2,-12.15 9.45,-8.15 14.26,-19.56 14.26,-34.16 0,-14.67 -4.97,-25.92 -15,-33.83 -9.95,-7.91 -24.21,-11.82 -42.8,-11.82l-56.18 0 -5.71 -25.28 93.6 0c29.52,0 52.18,7.09 68.25,21.36 15.98,14.27 23.97,34.49 23.97,60.74 0,29.68 -9.3,52.59 -27.81,68.82 -18.59,16.22 -44.92,24.37 -78.92,24.37l-74.36 0zm-59.68 0l0 -339.17 63.03 0 0 339.17 -63.03 0zm43.46 -166.73l0 -23.4 94.09 0 0 23.4 -94.09 0zm16.22 -16.22l0 -25.36 46.15 0c14.76,0 26.01,-3.18 33.51,-9.62 7.58,-6.44 11.41,-15.98 11.41,-28.54 0,-11.49 -4.07,-20.14 -12.06,-25.92 -8.07,-5.87 -20.14,-8.73 -36.2,-8.73l-41.83 0 -5.71 -58.05 49.9 0c35.71,0 63.27,7.26 82.76,21.85 19.48,14.6 29.27,35.3 29.27,62.21 0,23.24 -7.58,41.09 -22.67,53.49 -15.16,12.47 -36.53,18.67 -64.25,18.67l-70.28 0z"/>
  <path id="_5" class="fil4" d="M534.33 870.2c-36.44,0 -64.74,-11.49 -84.79,-34.4 -20.06,-22.99 -30.09,-55.28 -30.09,-97.02 0,-41.83 10.03,-74.2 30.09,-97.11 20.05,-22.83 48.35,-34.24 84.79,-34.24 36.45,0 64.74,11.41 84.79,34.24 20.06,22.91 30.09,55.28 30.09,97.11 0,41.74 -10.03,74.03 -30.09,97.02 -20.05,22.91 -48.34,34.4 -84.79,34.4zm0 -61.39c15.57,0 27.64,-6.11 36.04,-18.26 8.48,-12.23 12.64,-29.43 12.64,-51.77 0,-22.43 -4.16,-39.71 -12.64,-51.78 -8.4,-12.15 -20.47,-18.18 -36.04,-18.18 -15.49,0 -27.48,6.03 -35.95,18.18 -8.57,12.07 -12.8,29.35 -12.8,51.78 0,22.34 4.23,39.54 12.8,51.77 8.47,12.15 20.46,18.26 35.95,18.26z"/>
  <path id="_6" class="fil4" d="M887.89 870.2c-31.88,0 -54.87,-8.8 -68.98,-26.33 -14.02,-17.53 -21.11,-45.5 -21.11,-84.06l0 -252.75 64.49 0 0 250.39c0,10.51 1.14,19.07 3.34,25.76 2.28,6.69 6.52,11.66 12.88,14.84 6.44,3.18 15.9,4.73 28.46,4.73 14.02,0 31.71,-3.02 52.99,-9.05l7.42 66.45c-13.53,3.5 -26.58,6.03 -39.13,7.58 -12.56,1.63 -26.09,2.44 -40.36,2.44zm-161.76 -303.62l0 -59.52 75.99 0 0 59.52 -75.99 0z"/>
  <path id="_7" class="fil4" d="M1219.68 870.2c-43.62,0 -75.18,-8.8 -94.58,-26.33 -19.4,-17.53 -29.19,-45.5 -29.19,-84.06l0 -32.94 64.49 0 0 26.74c0,19.41 4.98,33.51 14.84,42.16 9.87,8.64 26.26,13.04 49.25,13.04 7.25,0 15.08,-0.49 23.4,-1.3 8.23,-0.9 17.77,-2.04 28.62,-3.51l5.78 60.42c-10.51,1.95 -20.79,3.34 -30.81,4.32 -10.03,0.98 -20.63,1.46 -31.8,1.46zm-123.77 -128.33l0 -206.11 64.49 0 0 206.11 -64.49 0zm-60.66 -70.2l0 -59.43 237.42 0 0 59.43 -237.42 0z"/>
  <g>
   <path class="fil3 str1" d="M2221.8 864.07c-108.11,0 -162.17,-58.3 -162.17,-174.89 0,-55.28 13.62,-98.08 40.85,-128.41 27.23,-30.33 65.8,-45.5 115.61,-45.5 22.42,0 42.4,3.67 59.77,10.93 17.28,7.17 30.49,17.53 39.38,30.9l-35.39 46.31c-7.17,-8.89 -16.22,-15.82 -27.31,-20.63 -11.09,-4.89 -23.08,-7.26 -35.96,-7.26 -27.39,0 -49.32,9.62 -65.79,28.95 -16.47,19.4 -24.71,46.8 -24.71,82.35 0,78.02 34.57,116.99 103.87,116.99 23.08,0 45.91,-4.72 68.33,-14.26l11.01 58.21c-27.73,10.84 -56.91,16.31 -87.49,16.31z"/>
  </g>
  <g>
   <path id="_1_0" class="fil3 str1" d="M2548.86 861.62l-5.46 -75.01 -0.98 -32.94 0 -49.41c0,-13.53 -5.79,-23.48 -17.29,-29.76 -11.57,-6.27 -28.69,-9.78 -51.52,-10.43l-64.74 -1.63 4.81 -58.79 55.2 0.74c45.82,0.65 79.9,9.7 102.24,27.15 22.26,17.36 33.43,42.8 33.43,76.31l0 93.6 35.06 5.22 0 52.59 -90.75 2.36zm-85.77 2.45c-26.91,0 -47.86,-6.61 -62.78,-19.9 -15,-13.21 -22.5,-31.96 -22.5,-56.34 0,-28.37 9.86,-50.06 29.43,-65.22 19.57,-15.08 47.37,-22.67 83.32,-22.67 13.87,0 25.85,0.74 35.96,2.12 10.11,1.47 20.38,3.67 30.74,6.69l-10.52 50.38c-10.19,-2.36 -19.4,-3.75 -27.48,-4.15 -8.15,-0.41 -16.63,-0.57 -25.6,-0.57 -33.43,0 -50.14,9.53 -50.14,28.61 0,8.65 3.02,15.17 9.05,19.74 6.12,4.56 14.92,6.84 26.58,6.84 14.02,0 25.68,-2.69 35.06,-7.91 9.46,-5.3 16.47,-11.98 21.2,-20.05 4.65,-8.16 7.01,-16.47 7.01,-25.11l0 -15.74 9.05 64.98 -20.3 0 8.4 -7.66c-0.49,14.67 -3.84,26.9 -10.03,36.69 -6.2,9.78 -14.92,17.12 -26.17,21.93 -11.26,4.89 -24.63,7.34 -40.28,7.34z"/>
  </g>
  <g>
   <path id="_2_1" class="fil3 str1" d="M2807.84 750.33l-14.84 -87.16 21.77 0c2.53,-41.25 24.13,-61.88 64.74,-61.88 24.05,0 42.48,8.8 55.28,26.5 12.8,17.69 19.24,43.13 19.24,76.47l-64.49 0c0,-15 -2.69,-25.76 -8.16,-32.28 -5.38,-6.53 -14.27,-9.79 -26.5,-9.79 -15.73,0 -27.55,7.59 -35.38,22.83 -7.75,15.17 -11.66,36.94 -11.66,65.31zm-117.98 108.93l0 -55.45 177.17 0 0 55.45 -177.17 0zm53.49 0l0 -253.16 54.95 0 9.54 72.56 0 180.6 -64.49 0zm-43.95 -197.8l0 -55.36 95.56 0 4.73 55.36 -100.29 0z"/>
  </g>
  <g>
   <path id="_3_2" class="fil3 str1" d="M3034.04 973.4l-2.36 -56.34 81.21 -2.36c22.25,-0.65 38.48,-6.85 48.51,-18.51 10.03,-11.74 15,-28.94 15,-51.77l0 -184.84 4.81 -53.48 59.93 0 0 230.73c0,45.01 -10.6,78.28 -31.72,99.72 -21.2,21.36 -54.95,32.94 -101.34,34.49l-74.04 2.36zm74.77 -109.33c-31.39,0 -55.77,-11.34 -73.22,-33.92 -17.44,-22.67 -26.17,-55.03 -26.17,-97.27 0,-41.82 8.73,-74.27 26.17,-97.19 17.45,-22.91 41.99,-34.4 73.71,-34.4 19.24,0 33.92,4.16 43.86,12.55 9.95,8.32 16.39,21.04 19.41,38.08l18.67 0 -14.84 80.96c0,-24.54 -4.08,-42.4 -12.31,-53.73 -8.15,-11.33 -20.55,-16.96 -37.1,-16.96 -16.39,0 -29.1,6.2 -37.99,18.51 -8.89,12.31 -13.37,29.76 -13.37,52.18 0,23.24 4.32,40.77 13.04,52.59 8.64,11.74 21.44,17.69 38.32,17.69 18.43,0 31.31,-5.62 38.57,-16.79 7.25,-11.09 10.84,-28.95 10.84,-53.49l17.2 80.47 -22.42 0c-2.52,16.96 -9.13,29.6 -19.81,38 -10.68,8.48 -24.87,12.72 -42.56,12.72z"/>
  </g>
  <g>
   <path id="_4_3" class="fil3 str1" d="M3449.73 864.07c-36.45,0 -64.74,-11.5 -84.79,-34.41 -20.06,-22.99 -30.09,-55.28 -30.09,-97.02 0,-41.83 10.03,-74.2 30.09,-97.11 20.05,-22.83 48.34,-34.24 84.79,-34.24 36.44,0 64.74,11.41 84.79,34.24 20.06,22.91 30.09,55.28 30.09,97.11 0,41.74 -10.03,74.03 -30.09,97.02 -20.05,22.91 -48.35,34.41 -84.79,34.41zm0 -61.4c15.57,0 27.64,-6.11 36.04,-18.26 8.48,-12.23 12.63,-29.43 12.63,-51.77 0,-22.42 -4.15,-39.71 -12.63,-51.78 -8.4,-12.14 -20.47,-18.18 -36.04,-18.18 -15.49,0 -27.48,6.04 -35.96,18.18 -8.56,12.07 -12.8,29.36 -12.8,51.78 0,22.34 4.24,39.54 12.8,51.77 8.48,12.15 20.47,18.26 35.96,18.26z"/>
  </g>
  <g>
   <path id="_5_4" class="fil3 str1" d="M3745.97 864.07c-19.32,0 -36.36,-0.66 -51.28,-1.8 -14.84,-1.22 -27.97,-3.01 -39.3,-5.38l7.66 -61.88c20.06,2.53 36.94,4.48 50.63,5.71 13.7,1.3 24.46,1.95 32.29,1.95 21.61,0 37.34,-1.46 47.05,-4.48 9.7,-2.94 14.51,-7.66 14.51,-14.19 0,-3.83 -1.14,-6.85 -3.59,-9.05 -2.36,-2.28 -6.2,-4.16 -11.41,-5.71l-82.43 -23.88c-16.88,-4.98 -29.6,-12.48 -38.08,-22.59 -8.56,-10.11 -12.8,-23.72 -12.8,-40.76 0,-27.24 11.5,-47.46 34.41,-60.75 22.91,-13.37 57.72,-19.97 104.36,-19.97 10.84,0 22.09,0.41 33.83,1.22 11.66,0.73 24.06,1.96 37.1,3.59l-6.93 59.92c-14.43,-1.3 -27.15,-2.11 -37.91,-2.6 -10.85,-0.49 -20.06,-0.74 -27.48,-0.74 -25.03,0 -43.13,1.39 -54.38,4.16 -11.25,2.77 -16.8,7.34 -16.8,13.78 0,3.91 1.15,7.01 3.43,9.13 2.28,2.2 5.95,4 10.84,5.38l71.02 19.65c21.77,5.87 38.07,14.43 48.83,25.6 10.69,11.25 16.07,25.85 16.07,43.87 0,26.9 -10.6,46.96 -31.96,60.09 -21.37,13.12 -53.9,19.73 -97.68,19.73z"/>
  </g>
  <path id="_6_5" class="fil4" d="M2221.8 864.07c-108.11,0 -162.17,-58.3 -162.17,-174.89 0,-55.28 13.62,-98.08 40.85,-128.41 27.23,-30.33 65.8,-45.5 115.61,-45.5 22.42,0 42.4,3.67 59.77,10.93 17.28,7.17 30.49,17.53 39.38,30.9l-35.39 46.31c-7.17,-8.89 -16.22,-15.82 -27.31,-20.63 -11.09,-4.89 -23.08,-7.26 -35.96,-7.26 -27.39,0 -49.32,9.62 -65.79,28.95 -16.47,19.4 -24.71,46.8 -24.71,82.35 0,78.02 34.57,116.99 103.87,116.99 23.08,0 45.91,-4.72 68.33,-14.26l11.01 58.21c-27.73,10.84 -56.91,16.31 -87.49,16.31z"/>
  <path id="_7_6" class="fil4" d="M2548.86 861.62l-5.46 -75.01 -0.98 -32.94 0 -49.41c0,-13.53 -5.79,-23.48 -17.29,-29.76 -11.57,-6.27 -28.69,-9.78 -51.52,-10.43l-64.74 -1.63 4.81 -58.79 55.2 0.74c45.82,0.65 79.9,9.7 102.24,27.15 22.26,17.36 33.43,42.8 33.43,76.31l0 93.6 35.06 5.22 0 52.59 -90.75 2.36zm-85.77 2.45c-26.91,0 -47.86,-6.61 -62.78,-19.9 -15,-13.21 -22.5,-31.96 -22.5,-56.34 0,-28.37 9.86,-50.06 29.43,-65.22 19.57,-15.08 47.37,-22.67 83.32,-22.67 13.87,0 25.85,0.74 35.96,2.12 10.11,1.47 20.38,3.67 30.74,6.69l-10.52 50.38c-10.19,-2.36 -19.4,-3.75 -27.48,-4.15 -8.15,-0.41 -16.63,-0.57 -25.6,-0.57 -33.43,0 -50.14,9.53 -50.14,28.61 0,8.65 3.02,15.17 9.05,19.74 6.12,4.56 14.92,6.84 26.58,6.84 14.02,0 25.68,-2.69 35.06,-7.91 9.46,-5.3 16.47,-11.98 21.2,-20.05 4.65,-8.16 7.01,-16.47 7.01,-25.11l0 -15.74 9.05 64.98 -20.3 0 8.4 -7.66c-0.49,14.67 -3.84,26.9 -10.03,36.69 -6.2,9.78 -14.92,17.12 -26.17,21.93 -11.26,4.89 -24.63,7.34 -40.28,7.34z"/>
  <path id="_8" class="fil4" d="M2807.84 750.33l-14.84 -87.16 21.77 0c2.53,-41.25 24.13,-61.88 64.74,-61.88 24.05,0 42.48,8.8 55.28,26.5 12.8,17.69 19.24,43.13 19.24,76.47l-64.49 0c0,-15 -2.69,-25.76 -8.16,-32.28 -5.38,-6.53 -14.27,-9.79 -26.5,-9.79 -15.73,0 -27.55,7.59 -35.38,22.83 -7.75,15.17 -11.66,36.94 -11.66,65.31zm-117.98 108.93l0 -55.45 177.17 0 0 55.45 -177.17 0zm53.49 0l0 -253.16 54.95 0 9.54 72.56 0 180.6 -64.49 0zm-43.95 -197.8l0 -55.36 95.56 0 4.73 55.36 -100.29 0z"/>
  <path id="_9" class="fil4" d="M3034.04 973.4l-2.36 -56.34 81.21 -2.36c22.25,-0.65 38.48,-6.85 48.51,-18.51 10.03,-11.74 15,-28.94 15,-51.77l0 -184.84 4.81 -53.48 59.93 0 0 230.73c0,45.01 -10.6,78.28 -31.72,99.72 -21.2,21.36 -54.95,32.94 -101.34,34.49l-74.04 2.36zm74.77 -109.33c-31.39,0 -55.77,-11.34 -73.22,-33.92 -17.44,-22.67 -26.17,-55.03 -26.17,-97.27 0,-41.82 8.73,-74.27 26.17,-97.19 17.45,-22.91 41.99,-34.4 73.71,-34.4 19.24,0 33.92,4.16 43.86,12.55 9.95,8.32 16.39,21.04 19.41,38.08l18.67 0 -14.84 80.96c0,-24.54 -4.08,-42.4 -12.31,-53.73 -8.15,-11.33 -20.55,-16.96 -37.1,-16.96 -16.39,0 -29.1,6.2 -37.99,18.51 -8.89,12.31 -13.37,29.76 -13.37,52.18 0,23.24 4.32,40.77 13.04,52.59 8.64,11.74 21.44,17.69 38.32,17.69 18.43,0 31.31,-5.62 38.57,-16.79 7.25,-11.09 10.84,-28.95 10.84,-53.49l17.2 80.47 -22.42 0c-2.52,16.96 -9.13,29.6 -19.81,38 -10.68,8.48 -24.87,12.72 -42.56,12.72z"/>
  <path id="_10" class="fil4" d="M3449.73 864.07c-36.45,0 -64.74,-11.5 -84.79,-34.41 -20.06,-22.99 -30.09,-55.28 -30.09,-97.02 0,-41.83 10.03,-74.2 30.09,-97.11 20.05,-22.83 48.34,-34.24 84.79,-34.24 36.44,0 64.74,11.41 84.79,34.24 20.06,22.91 30.09,55.28 30.09,97.11 0,41.74 -10.03,74.03 -30.09,97.02 -20.05,22.91 -48.35,34.41 -84.79,34.41zm0 -61.4c15.57,0 27.64,-6.11 36.04,-18.26 8.48,-12.23 12.63,-29.43 12.63,-51.77 0,-22.42 -4.15,-39.71 -12.63,-51.78 -8.4,-12.14 -20.47,-18.18 -36.04,-18.18 -15.49,0 -27.48,6.04 -35.96,18.18 -8.56,12.07 -12.8,29.36 -12.8,51.78 0,22.34 4.24,39.54 12.8,51.77 8.48,12.15 20.47,18.26 35.96,18.26z"/>
  <path id="_11" class="fil4" d="M3745.97 864.07c-19.32,0 -36.36,-0.66 -51.28,-1.8 -14.84,-1.22 -27.97,-3.01 -39.3,-5.38l7.66 -61.88c20.06,2.53 36.94,4.48 50.63,5.71 13.7,1.3 24.46,1.95 32.29,1.95 21.61,0 37.34,-1.46 47.05,-4.48 9.7,-2.94 14.51,-7.66 14.51,-14.19 0,-3.83 -1.14,-6.85 -3.59,-9.05 -2.36,-2.28 -6.2,-4.16 -11.41,-5.71l-82.43 -23.88c-16.88,-4.98 -29.6,-12.48 -38.08,-22.59 -8.56,-10.11 -12.8,-23.72 -12.8,-40.76 0,-27.24 11.5,-47.46 34.41,-60.75 22.91,-13.37 57.72,-19.97 104.36,-19.97 10.84,0 22.09,0.41 33.83,1.22 11.66,0.73 24.06,1.96 37.1,3.59l-6.93 59.92c-14.43,-1.3 -27.15,-2.11 -37.91,-2.6 -10.85,-0.49 -20.06,-0.74 -27.48,-0.74 -25.03,0 -43.13,1.39 -54.38,4.16 -11.25,2.77 -16.8,7.34 -16.8,13.78 0,3.91 1.15,7.01 3.43,9.13 2.28,2.2 5.95,4 10.84,5.38l71.02 19.65c21.77,5.87 38.07,14.43 48.83,25.6 10.69,11.25 16.07,25.85 16.07,43.87 0,26.9 -10.6,46.96 -31.96,60.09 -21.37,13.12 -53.9,19.73 -97.68,19.73z"/>
 </g>
</svg>
